<mxfile host="app.diagrams.net" modified="2024-05-29T19:16:32.631Z" agent="Mozilla/5.0 (Macintosh; Intel Mac OS X 10_15_7) AppleWebKit/537.36 (KHTML, like Gecko) Chrome/124.0.0.0 Safari/537.36" etag="8j-xXARkAnl0pgIJDyGN" version="24.4.10" type="github">
  <diagram id="C5RBs43oDa-KdzZeNtuy" name="Page-1">
    <mxGraphModel dx="1266" dy="992" grid="1" gridSize="10" guides="1" tooltips="1" connect="1" arrows="1" fold="1" page="1" pageScale="1" pageWidth="827" pageHeight="1169" math="0" shadow="0">
      <root>
        <mxCell id="WIyWlLk6GJQsqaUBKTNV-0" />
        <mxCell id="WIyWlLk6GJQsqaUBKTNV-1" parent="WIyWlLk6GJQsqaUBKTNV-0" />
        <mxCell id="WIyWlLk6GJQsqaUBKTNV-2" value="" style="rounded=0;html=1;jettySize=auto;orthogonalLoop=1;fontSize=14;endArrow=open;endFill=0;endSize=8;strokeWidth=1;shadow=0;labelBackgroundColor=none;edgeStyle=orthogonalEdgeStyle;entryX=0.5;entryY=0;entryDx=0;entryDy=0;fontFamily=Times New Roman;" parent="WIyWlLk6GJQsqaUBKTNV-1" source="WIyWlLk6GJQsqaUBKTNV-3" target="1hn9Udnl4FzgqzNBOKn--0" edge="1">
          <mxGeometry relative="1" as="geometry">
            <mxPoint x="439" y="150" as="targetPoint" />
          </mxGeometry>
        </mxCell>
        <mxCell id="WIyWlLk6GJQsqaUBKTNV-3" value="Начало" style="rounded=1;whiteSpace=wrap;html=1;fontSize=14;glass=0;strokeWidth=1;shadow=0;arcSize=50;fontFamily=Times New Roman;" parent="WIyWlLk6GJQsqaUBKTNV-1" vertex="1">
          <mxGeometry x="379" y="60" width="120" height="40" as="geometry" />
        </mxCell>
        <mxCell id="1hn9Udnl4FzgqzNBOKn--24" style="edgeStyle=orthogonalEdgeStyle;rounded=0;orthogonalLoop=1;jettySize=auto;html=1;entryX=0.5;entryY=0;entryDx=0;entryDy=0;" edge="1" parent="WIyWlLk6GJQsqaUBKTNV-1" source="1hn9Udnl4FzgqzNBOKn--0" target="1hn9Udnl4FzgqzNBOKn--23">
          <mxGeometry relative="1" as="geometry" />
        </mxCell>
        <mxCell id="1hn9Udnl4FzgqzNBOKn--0" value="Загрузка&amp;nbsp;&lt;div style=&quot;font-size: 14px;&quot;&gt;матрицы&amp;nbsp;&lt;/div&gt;&lt;div style=&quot;font-size: 14px;&quot;&gt;изображения&lt;/div&gt;" style="shape=parallelogram;perimeter=parallelogramPerimeter;whiteSpace=wrap;html=1;fixedSize=1;fontFamily=Times New Roman;fontSize=14;" vertex="1" parent="WIyWlLk6GJQsqaUBKTNV-1">
          <mxGeometry x="379" y="130" width="120" height="60" as="geometry" />
        </mxCell>
        <mxCell id="1hn9Udnl4FzgqzNBOKn--7" value="" style="edgeStyle=orthogonalEdgeStyle;rounded=0;orthogonalLoop=1;jettySize=auto;html=1;endArrow=open;endFill=0;" edge="1" parent="WIyWlLk6GJQsqaUBKTNV-1" source="1hn9Udnl4FzgqzNBOKn--3" target="1hn9Udnl4FzgqzNBOKn--6">
          <mxGeometry relative="1" as="geometry" />
        </mxCell>
        <mxCell id="1hn9Udnl4FzgqzNBOKn--3" value="Создание&amp;nbsp;&lt;div style=&quot;font-size: 14px;&quot;&gt;матрицы&lt;/div&gt;&lt;div style=&quot;font-size: 14px;&quot;&gt;аппертуры&lt;/div&gt;" style="rounded=0;whiteSpace=wrap;html=1;fontFamily=Times New Roman;fontSize=14;" vertex="1" parent="WIyWlLk6GJQsqaUBKTNV-1">
          <mxGeometry x="379" y="310" width="120" height="60" as="geometry" />
        </mxCell>
        <mxCell id="1hn9Udnl4FzgqzNBOKn--11" value="" style="edgeStyle=orthogonalEdgeStyle;rounded=0;orthogonalLoop=1;jettySize=auto;html=1;" edge="1" parent="WIyWlLk6GJQsqaUBKTNV-1" source="1hn9Udnl4FzgqzNBOKn--6" target="1hn9Udnl4FzgqzNBOKn--10">
          <mxGeometry relative="1" as="geometry" />
        </mxCell>
        <mxCell id="1hn9Udnl4FzgqzNBOKn--6" value="Перемещение аппертуры в начало изображения" style="whiteSpace=wrap;html=1;fontSize=14;fontFamily=Times New Roman;rounded=0;" vertex="1" parent="WIyWlLk6GJQsqaUBKTNV-1">
          <mxGeometry x="369" y="400" width="140" height="60" as="geometry" />
        </mxCell>
        <mxCell id="1hn9Udnl4FzgqzNBOKn--9" value="Конец" style="rounded=1;whiteSpace=wrap;html=1;arcSize=50;fontFamily=Times New Roman;fontSize=14;" vertex="1" parent="WIyWlLk6GJQsqaUBKTNV-1">
          <mxGeometry x="384" y="1020" width="120" height="60" as="geometry" />
        </mxCell>
        <mxCell id="1hn9Udnl4FzgqzNBOKn--20" style="edgeStyle=orthogonalEdgeStyle;rounded=0;orthogonalLoop=1;jettySize=auto;html=1;entryX=0.5;entryY=0;entryDx=0;entryDy=0;" edge="1" parent="WIyWlLk6GJQsqaUBKTNV-1" source="1hn9Udnl4FzgqzNBOKn--10" target="1hn9Udnl4FzgqzNBOKn--19">
          <mxGeometry relative="1" as="geometry" />
        </mxCell>
        <mxCell id="1hn9Udnl4FzgqzNBOKn--10" value="Нахождение среднего арифметического всех ячеек внутри аппертуры" style="whiteSpace=wrap;html=1;fontSize=14;fontFamily=Times New Roman;rounded=0;" vertex="1" parent="WIyWlLk6GJQsqaUBKTNV-1">
          <mxGeometry x="349" y="520" width="180" height="60" as="geometry" />
        </mxCell>
        <mxCell id="1hn9Udnl4FzgqzNBOKn--15" style="edgeStyle=orthogonalEdgeStyle;rounded=0;orthogonalLoop=1;jettySize=auto;html=1;exitX=0;exitY=0.5;exitDx=0;exitDy=0;" edge="1" parent="WIyWlLk6GJQsqaUBKTNV-1" source="1hn9Udnl4FzgqzNBOKn--13">
          <mxGeometry relative="1" as="geometry">
            <mxPoint x="439" y="490" as="targetPoint" />
            <Array as="points">
              <mxPoint x="290" y="850" />
              <mxPoint x="290" y="490" />
            </Array>
          </mxGeometry>
        </mxCell>
        <mxCell id="1hn9Udnl4FzgqzNBOKn--27" value="" style="edgeStyle=orthogonalEdgeStyle;rounded=0;orthogonalLoop=1;jettySize=auto;html=1;" edge="1" parent="WIyWlLk6GJQsqaUBKTNV-1" source="1hn9Udnl4FzgqzNBOKn--13" target="1hn9Udnl4FzgqzNBOKn--26">
          <mxGeometry relative="1" as="geometry" />
        </mxCell>
        <mxCell id="1hn9Udnl4FzgqzNBOKn--13" value="Обработаны&amp;nbsp;&lt;div&gt;все пиксели?&lt;/div&gt;" style="rhombus;whiteSpace=wrap;html=1;fontSize=14;fontFamily=Times New Roman;rounded=0;" vertex="1" parent="WIyWlLk6GJQsqaUBKTNV-1">
          <mxGeometry x="364" y="810" width="160" height="80" as="geometry" />
        </mxCell>
        <mxCell id="1hn9Udnl4FzgqzNBOKn--18" style="edgeStyle=orthogonalEdgeStyle;rounded=0;orthogonalLoop=1;jettySize=auto;html=1;entryX=0.5;entryY=0;entryDx=0;entryDy=0;" edge="1" parent="WIyWlLk6GJQsqaUBKTNV-1" source="1hn9Udnl4FzgqzNBOKn--16" target="1hn9Udnl4FzgqzNBOKn--13">
          <mxGeometry relative="1" as="geometry" />
        </mxCell>
        <mxCell id="1hn9Udnl4FzgqzNBOKn--16" value="Сдвиг апертуры&amp;nbsp;&lt;div&gt;на одну позицию&lt;/div&gt;" style="rounded=0;whiteSpace=wrap;html=1;" vertex="1" parent="WIyWlLk6GJQsqaUBKTNV-1">
          <mxGeometry x="379" y="710" width="130" height="60" as="geometry" />
        </mxCell>
        <mxCell id="1hn9Udnl4FzgqzNBOKn--17" value="Нет" style="text;html=1;align=center;verticalAlign=middle;resizable=0;points=[];autosize=1;strokeColor=none;fillColor=none;" vertex="1" parent="WIyWlLk6GJQsqaUBKTNV-1">
          <mxGeometry x="329" y="780" width="40" height="30" as="geometry" />
        </mxCell>
        <mxCell id="1hn9Udnl4FzgqzNBOKn--19" value="Добавление нового значения в матрицу результата" style="rounded=0;whiteSpace=wrap;html=1;" vertex="1" parent="WIyWlLk6GJQsqaUBKTNV-1">
          <mxGeometry x="380" y="610" width="120" height="60" as="geometry" />
        </mxCell>
        <mxCell id="1hn9Udnl4FzgqzNBOKn--21" style="edgeStyle=orthogonalEdgeStyle;rounded=0;orthogonalLoop=1;jettySize=auto;html=1;entryX=0.474;entryY=-0.003;entryDx=0;entryDy=0;entryPerimeter=0;" edge="1" parent="WIyWlLk6GJQsqaUBKTNV-1" source="1hn9Udnl4FzgqzNBOKn--19" target="1hn9Udnl4FzgqzNBOKn--16">
          <mxGeometry relative="1" as="geometry" />
        </mxCell>
        <mxCell id="1hn9Udnl4FzgqzNBOKn--25" style="edgeStyle=orthogonalEdgeStyle;rounded=0;orthogonalLoop=1;jettySize=auto;html=1;entryX=0.5;entryY=0;entryDx=0;entryDy=0;" edge="1" parent="WIyWlLk6GJQsqaUBKTNV-1" source="1hn9Udnl4FzgqzNBOKn--23" target="1hn9Udnl4FzgqzNBOKn--3">
          <mxGeometry relative="1" as="geometry" />
        </mxCell>
        <mxCell id="1hn9Udnl4FzgqzNBOKn--23" value="Конвертация изображения в черно-белое" style="rounded=0;whiteSpace=wrap;html=1;" vertex="1" parent="WIyWlLk6GJQsqaUBKTNV-1">
          <mxGeometry x="379" y="220" width="120" height="60" as="geometry" />
        </mxCell>
        <mxCell id="1hn9Udnl4FzgqzNBOKn--28" style="edgeStyle=orthogonalEdgeStyle;rounded=0;orthogonalLoop=1;jettySize=auto;html=1;entryX=0.5;entryY=0;entryDx=0;entryDy=0;" edge="1" parent="WIyWlLk6GJQsqaUBKTNV-1" source="1hn9Udnl4FzgqzNBOKn--26" target="1hn9Udnl4FzgqzNBOKn--9">
          <mxGeometry relative="1" as="geometry" />
        </mxCell>
        <mxCell id="1hn9Udnl4FzgqzNBOKn--26" value="Запись результирующей матрицы в изображение" style="whiteSpace=wrap;html=1;fontSize=14;fontFamily=Times New Roman;rounded=0;" vertex="1" parent="WIyWlLk6GJQsqaUBKTNV-1">
          <mxGeometry x="369" y="920" width="150" height="60" as="geometry" />
        </mxCell>
      </root>
    </mxGraphModel>
  </diagram>
</mxfile>
